<svg width="2882" height="2050" viewBox="0 0 2882 2050" fill="none" xmlns="http://www.w3.org/2000/svg" xmlns:xlink="http://www.w3.org/1999/xlink">
<path d="M1996.334,752.032C2228.7,645.712 2437.02,465.518 2682,482.782C2900.18,594.626 2848.32,728.916 2853.2,974.734C2858.1,1220.552 2849.02,1355.758 2855.06,1659.506C2859.96,1905.722 2964.36,2054.34 2716,2049.24C2481.06,2044.42 2357.94,2053.26 2077.14,2047.5C1758.34,2040.98 1336.138,2045.5 1065.772,2044.76C922.922,1787.016 1100.012,1382.178 1294.038,1117.86C1451.202,903.758 1746.846,866.188 1996.334,752.032Z" clip-rule="evenodd" fill-rule="evenodd" fill="#9C6FE4"/>
<path d="M348.556,0.361C461.25,3.613 540.966,0.361 671.63,0.361C760.716,76.158 788.506,202.622 777.838,318.294C768.002,424.942 696.982,511.264 616.618,583.128C541.112,650.646 450.164,695.356 348.556,702.166C238.716,709.528 120.851,697.044 41.474,621.676C0,510.468 0,459.122 0,340.634C0,222.144 0,107.605 0,0.361C92.571,19.498 229.966,-3.063 348.556,0.361Z" clip-rule="evenodd" fill-rule="evenodd" fill="#9C6FE4"/>
<path d="M2315.36,11.139C2387.1,13.239 2465.86,-5.243 2520.24,41.687C2576.96,90.626 2595.46,172.279 2588.66,246.964C2582.4,315.822 2537.18,371.558 2486.02,417.958C2437.96,461.552 2380.04,490.42 2315.36,494.816C2245.42,499.57 2170.4,491.508 2119.86,442.846C2068.62,393.512 2061.7,318.064 2057.96,246.964C2053.94,170.376 2041.66,81.086 2098.14,29.331C2153.88,-21.738 2239.86,8.929 2315.36,11.139Z" clip-rule="evenodd" fill-rule="evenodd" fill="#9C6FE4" fill-opacity="0.6"/>
<path d="M1287.298,78.117C1341.126,32.806 1411.93,22.786 1482.278,21.447C1546.68,20.221 1614.326,27.07 1661.438,70.997C1706.852,113.343 1705.116,180.307 1717.836,241.084C1733.638,316.578 1782.064,395.514 1743.316,462.202C1701.83,533.6 1617.154,631.862 1534.684,636C1454.946,640 1377.244,532.204 1313.792,483.75C1246.184,432.124 1170.668,373.294 1165.124,288.41C1159.63,204.312 1222.822,132.389 1287.298,78.117Z" clip-rule="evenodd" fill-rule="evenodd" fill="#9C6FE4" fill-opacity="0.8"/>
<path d="M360.82,1202.95C458.222,1180.368 609.424,1212.508 678.6,1303.92C746.828,1394.078 746.944,1575.504 737.74,1701.024C728.976,1820.508 647.07,1904.256 569.932,1971.154C508.456,2024.46 434.668,2020.96 360.82,2027.9C277.098,2035.78 187.403,2076.18 118.822,2013.64C42.789,1944.308 -12.197,1819.772 2.338,1701.024C16.059,1588.928 125.083,1556.89 184.904,1473.776C249.48,1384.056 267.476,1224.592 360.82,1202.95Z" clip-rule="evenodd" fill-rule="evenodd" fill="#9C6FE4"/>
<path d="M764.614,646.116C818.444,600.806 889.246,590.786 959.594,589.446C1023.996,588.222 1091.642,595.07 1138.754,638.998C1184.17,681.344 1182.434,748.306 1195.154,809.086C1210.954,884.578 1259.382,963.514 1220.632,1030.202C1179.148,1101.6 1088.71,1130.08 1006.24,1134.218C926.502,1138.218 854.56,1100.204 791.108,1051.75C723.502,1000.124 647.984,941.294 642.44,856.41C636.948,772.312 700.138,700.388 764.614,646.116Z" clip-rule="evenodd" fill-rule="evenodd" fill="#9C6FE4" fill-opacity="0.6"/>
</svg>
